<svg width="231" height="169" viewBox="0 0 231 169" fill="none" xmlns="http://www.w3.org/2000/svg">
<path d="M44.7953 0.0471191V11.237H22.3919V123.219H11.2019V11.237H0.000244141V0.0471191H44.7953Z" fill="white"/>
<path d="M67.1883 0.0471191V56.0321H55.9984V33.6404H44.7967V56.0321H33.595V22.4388H55.9984V0.0471191H67.1883Z" fill="#F7941D"/>
<path d="M89.5901 0.0471191H78.3884V56.0321H89.5901V0.0471191Z" fill="#F7941D"/>
<path d="M184.779 39.6173V56.0198H173.577V39.6173C173.577 36.5227 176.083 34.0165 179.178 34.0165C182.272 34.0165 184.779 36.5227 184.779 39.6173Z" fill="white"/>
<path d="M216.386 0.000244141L201.584 13.4964L188.523 0.0473202H184.782H139.987V11.2373H151.188V56.0323H162.39V11.2373H182.887L195.983 24.6981V56.0323H207.185V24.6981L231 0.000244141H216.386Z" fill="#F7941D"/>
<path d="M139.986 56.0321L125.396 31.7225C130.738 28.9103 134.385 23.3095 134.385 16.8497C134.385 7.57767 126.866 0.0471191 117.583 0.0471191H100.78V56.0321H111.982V33.6404H115.347L128.784 56.0321H139.986ZM111.993 11.2371H117.594C120.689 11.2371 123.195 13.7433 123.195 16.8379C123.195 19.9325 120.689 22.4388 117.594 22.4388H111.993V11.2371Z" fill="#F7941D"/>
<path d="M67.1883 67.2208V123.218H55.9984V100.826H44.7967V123.218H33.595V67.2208H44.7967V89.6242H55.9984V67.2208H67.1883Z" fill="#F7941D"/>
<path d="M134.395 78.4225V88.0946H150.704V99.2963H134.395V112.016H156.787V123.218H123.194V67.2208H156.787V78.4225H134.395Z" fill="#F7941D"/>
<path d="M179.181 78.4225V88.0946H196.49V99.2963H179.181V112.016H201.573V123.218H167.991V67.2208H201.573V78.4225H179.181Z" fill="#F7941D"/>
<path d="M117.586 123.218L102.96 98.908C108.325 96.1076 111.985 90.4949 111.985 84.0234C111.985 74.7514 104.466 67.2208 95.1822 67.2208H78.3796V123.218H89.5813V100.826H92.9113L106.384 123.218H117.586ZM89.5931 78.4225H95.194C98.2885 78.4225 100.795 80.9288 100.795 84.0234C100.795 87.118 98.2885 89.6242 95.194 89.6242H89.5931V78.4225Z" fill="#F7941D"/>
<path d="M21.6307 133.571C26.744 133.571 30.6697 134.478 33.4078 136.292C36.1459 138.074 37.515 141.01 37.515 145.1C37.515 149.224 36.1294 152.209 33.3583 154.057C30.5872 155.871 26.6286 156.778 21.4823 156.778H19.0576V168.259H11.3381V134.461C13.0206 134.131 14.802 133.901 16.6824 133.769C18.5627 133.637 20.2122 133.571 21.6307 133.571ZM22.1256 140.152C21.5647 140.152 21.0039 140.168 20.4431 140.201C19.9153 140.234 19.4534 140.267 19.0576 140.3V150.197H21.4823C24.1544 150.197 26.1667 149.834 27.5193 149.109C28.8718 148.383 29.5481 147.03 29.5481 145.051C29.5481 144.094 29.3667 143.302 29.0038 142.676C28.6739 142.049 28.179 141.554 27.5193 141.191C26.8925 140.795 26.1172 140.531 25.1935 140.399C24.2698 140.234 23.2472 140.152 22.1256 140.152Z" fill="white"/>
<path d="M43.1835 168.259V133.967H66.3418V140.449H50.903V147.179H64.6099V153.513H50.903V161.776H67.48V168.259H43.1835Z" fill="white"/>
<path d="M83.2378 133.571C88.3841 133.571 92.3263 134.494 95.0644 136.342C97.8024 138.156 99.1715 140.993 99.1715 144.853C99.1715 147.261 98.6107 149.224 97.4891 150.741C96.4004 152.226 94.8169 153.397 92.7386 154.255C93.4314 155.113 94.1572 156.102 94.9159 157.224C95.6747 158.312 96.4169 159.467 97.1427 160.688C97.9014 161.875 98.6272 163.129 99.3199 164.448C100.013 165.735 100.656 167.005 101.25 168.259H92.5902C91.9634 167.137 91.3201 165.999 90.6603 164.844C90.0335 163.69 89.3737 162.568 88.681 161.479C88.0212 160.391 87.3614 159.368 86.7016 158.411C86.0418 157.422 85.3821 156.531 84.7223 155.739H80.912V168.259H73.1926V134.461C74.8751 134.131 76.607 133.901 78.3884 133.769C80.2028 133.637 81.8193 133.571 83.2378 133.571ZM83.6831 140.152C83.1223 140.152 82.611 140.168 82.1491 140.201C81.7203 140.234 81.3079 140.267 80.912 140.3V149.603H83.0893C85.9924 149.603 88.0707 149.24 89.3243 148.515C90.5778 147.789 91.2046 146.552 91.2046 144.803C91.2046 143.121 90.5613 141.933 89.2748 141.241C88.0212 140.515 86.1573 140.152 83.6831 140.152Z" fill="white"/>
<path d="M120.965 168.951C115.39 168.951 111.134 167.401 108.198 164.3C105.295 161.199 103.843 156.795 103.843 151.088C103.843 148.251 104.289 145.727 105.179 143.517C106.07 141.274 107.291 139.393 108.841 137.876C110.392 136.325 112.239 135.154 114.383 134.362C116.528 133.571 118.853 133.175 121.361 133.175C122.812 133.175 124.132 133.29 125.319 133.521C126.507 133.719 127.546 133.967 128.437 134.263C129.327 134.527 130.07 134.808 130.664 135.105C131.257 135.402 131.686 135.632 131.95 135.797L129.723 142.032C128.668 141.472 127.431 140.993 126.012 140.597C124.627 140.201 123.043 140.004 121.262 140.004C120.074 140.004 118.903 140.201 117.748 140.597C116.627 140.993 115.621 141.636 114.73 142.527C113.872 143.385 113.179 144.507 112.652 145.892C112.124 147.278 111.86 148.96 111.86 150.939C111.86 152.523 112.025 154.007 112.355 155.393C112.717 156.745 113.278 157.917 114.037 158.906C114.829 159.896 115.851 160.688 117.105 161.281C118.359 161.842 119.876 162.123 121.658 162.123C122.779 162.123 123.785 162.057 124.676 161.925C125.567 161.793 126.358 161.644 127.051 161.479C127.744 161.281 128.354 161.067 128.882 160.836C129.41 160.605 129.888 160.391 130.317 160.193L132.445 166.378C131.356 167.038 129.822 167.632 127.843 168.16C125.864 168.688 123.571 168.951 120.965 168.951Z" fill="white"/>
<path d="M137.415 168.259V133.967H160.573V140.449H145.134V147.179H158.841V153.513H145.134V161.776H161.711V168.259H137.415Z" fill="white"/>
<path d="M190.434 168.259C188.224 164.333 185.832 160.457 183.259 156.63C180.686 152.803 177.948 149.191 175.045 145.793V168.259H167.424V133.967H173.708C174.797 135.055 176.001 136.391 177.321 137.975C178.64 139.558 179.976 141.257 181.329 143.072C182.714 144.853 184.084 146.717 185.436 148.663C186.789 150.577 188.059 152.424 189.246 154.205V133.967H196.916V168.259H190.434Z" fill="white"/>
<path d="M230.261 133.967V140.548H219.919V168.259H212.2V140.548H201.858V133.967H230.261Z" fill="white"/>
</svg>
